[img]http://img513.imageshack.us/img513/8743/heinekeny.jpg[/img]


Nederland
Misdaad / Thriller
120 minuten

geregisseerd door Maarten Treurniet
met Rutger Hauer, Reinout Scholten van Aschat en Gijs Naber

De Heineken Ontvoering is geïnspireerd op de bekendste ontvoeringszaak in Nederland. De biermagnaat Alfred Heineken wordt in 1983 samen met zijn chauffeur Ab Doderer ontvoerd door vier mannen, die 35 miljoen gulden losgeld eisen. Vier jonge, op geld beluste criminelen die elkaar al van jongs af aan kennen en een hechte clan vormen, sluiten Heineken en Doderer twee weken lang op in een Amsterdamse loods. De film laat het spannende verhaal van de ontvoering en de jacht op de daders zien, maar biedt ook een kijkje in de psychologische machtsstrijd tussen Heineken en zijn ontvoerders.



Redelijke cam, helaas is het beeld wel een beetje schuin opgenomen maar voor de mensen die hem echt willen zien, raad ik het aan toch te proberen. :lol:
RESPECT VOOR DEGENE DIE DIT GEFILMT HEEFT! 



Trailer:





Screenshots:

[img]http://img85.imageshack.us/img85/8576/screenshot1qv.jpg[/img]

[img]http://img27.imageshack.us/img27/5931/screenshot2jv.jpg[/img]

[img]http://img818.imageshack.us/img818/66/screenshot3ra.jpg[/img]

[img]http://img254.imageshack.us/img254/2711/screenshot4f.jpg[/img]



INFO;


Video
ID                                       : 0
Format                                   : AVC
Format/Info                              : Advanced Video Codec
Format profile                           : Baseline@L3.0
Format settings, CABAC                   : No
Format settings, ReFrames                : 1 frame
Format settings, GOP                     : M=1, N=12
Codec ID                                 : H264
Duration                                 : 1h 59mn
Bit rate mode                            : Variable
Bit rate                                 : 1 527 Kbps
Maximum bit rate                         : 2 197 Kbps
Width                                    : 800 pixels
Height                                   : 480 pixels
Display aspect ratio                     : 1.667
Frame rate                               : 25.000 fps
Original frame rate                      : 24.000 fps
Color space                              : YUV
Chroma subsampling                       : 4:2:0
Bit depth                                : 8 bits
Scan type                                : Progressive
Bits/(Pixel*Frame)                       : 0.159
Stream size                              : 1.28 GiB (91%)

Audio
ID                                       : 1
Format                                   : MPEG Audio
Format version                           : Version 1
Format profile                           : Layer 3
Mode                                     : Joint stereo
Mode extension                           : MS Stereo
Codec ID                                 : 55
Codec ID/Hint                            : MP3
Duration                                 : 1h 54mn
Bit rate mode                            : Constant
Bit rate                                 : 128 Kbps
Channel(s)                               : 2 channels
Sampling rate                            : 44.1 KHz
Compression mode                         : Lossy
Stream size                              : 31.6 MiB (2%)
Alignment                                : Aligned on interleaves
Interleave, duration                     : 91 ms (2.27 video frames)





Deze film wordt u aangeboden door het DutchReleaseTeam.
Voor de reviews van de nieuwste films, muziek, series, games etc
ga dan eens naar http://www.hetmultimediacafe.be

DutchReleaseteam = Hardcoded Dutch Subs





 [url=http://www.imdb.com/title/tt1846526/][img]http://hetmultimediacafe.nl/images/afbeeldingen/imdb.png[/img][/url] [url=http://www.moviemeter.nl/film/75990][img]http://hetmultimediacafe.nl/images/afbeeldingen/moviemeter.png[/img][/url]